<?xml version="1.0" encoding="UTF-8"?>
<svg version="1.1" xmlns="http://www.w3.org/2000/svg" width="500" height="159">
<path d="M0 0 C165 0 330 0 500 0 C500 52.47 500 104.94 500 159 C335 159 170 159 0 159 C0 106.53 0 54.06 0 0 Z " fill="#FEFEFE" transform="translate(0,0)"/>
<path d="M0 0 C0.86843033 -0.01606293 1.73686066 -0.03212585 2.63160706 -0.04867554 C6.61783894 -0.09342496 10.60390698 -0.13422855 14.59033203 -0.15722656 C16.68419553 -0.17373024 18.77800401 -0.20094568 20.87158203 -0.23925781 C23.90548654 -0.29444152 26.93807111 -0.31596808 29.97241211 -0.33056641 C31.35735619 -0.36457047 31.35735619 -0.36457047 32.77027893 -0.39926147 C40.37657665 -0.37491747 46.98000451 1.74407767 52.6375885 7.00723267 C58.50563747 13.39015657 59.00407032 19.28523074 59.02319336 27.68115234 C59.03317856 29.20690132 59.03317856 29.20690132 59.04336548 30.76347351 C59.05347586 32.91269121 59.058183 35.06194019 59.05786133 37.21118164 C59.06222682 40.48360515 59.09854338 43.75467106 59.13647461 47.02685547 C59.14234477 49.11994984 59.14631283 51.21305059 59.14819336 53.30615234 C59.16256439 54.27724442 59.17693542 55.24833649 59.19174194 56.24885559 C59.14589904 63.13455727 57.91357783 68.62773413 53.19662476 73.84004211 C49.57882163 77.22270444 45.97052151 77.58427914 41.12475586 77.75537109 C35.86590011 77.53826237 32.6187418 76.92274237 28.68725586 73.19287109 C24.28229434 68.31169752 23.56128217 65.04084613 23.58959961 58.55615234 C23.59282227 57.25742188 23.59604492 55.95869141 23.59936523 54.62060547 C23.60772055 53.24886001 23.61618549 51.87711522 23.62475586 50.50537109 C23.62977251 49.12190914 23.63433513 47.73844546 23.63842773 46.35498047 C23.65023057 42.96756715 23.66669567 39.58024076 23.68725586 36.19287109 C22.47779297 36.22429199 22.47779297 36.22429199 21.24389648 36.25634766 C17.55847859 36.33996282 13.87326092 36.39167658 10.18725586 36.44287109 C8.28459961 36.49314453 8.28459961 36.49314453 6.34350586 36.54443359 C-1.0537968 36.62148883 -6.077291 36.30226009 -12.31274414 32.19287109 C-16.44207956 27.95486896 -18.11126704 24.24122159 -18.68774414 18.38037109 C-18.5370777 13.68312313 -17.09067938 9.97215508 -14.31274414 6.19287109 C-9.99214522 2.22577572 -5.92966087 0.09999771 0 0 Z " fill="#567BFF" transform="translate(35.312744140625,69.80712890625)"/>
<path d="M0 0 C4.71372937 2.63856166 6.99572627 6.2996788 8.6875 11.375 C8.77108958 13.58589945 8.79481764 15.79926078 8.78515625 18.01171875 C8.78193359 19.31044922 8.77871094 20.60917969 8.77539062 21.94726562 C8.76703531 23.31901108 8.75857037 24.69075587 8.75 26.0625 C8.74498335 27.44596195 8.74042073 28.82942563 8.73632812 30.21289062 C8.72452529 33.60030395 8.70806019 36.98763033 8.6875 40.375 C9.56486816 40.35405273 10.44223633 40.33310547 11.34619141 40.31152344 C14.62266683 40.243074 17.89837512 40.19306949 21.17529297 40.15527344 C22.58947795 40.13524157 24.00358097 40.10800752 25.41748047 40.07324219 C27.45821419 40.02434511 29.4978469 40.00194877 31.5390625 39.984375 C32.76447754 39.96342773 33.98989258 39.94248047 35.25244141 39.92089844 C40.44814993 40.60775116 43.49188324 43.04653694 46.9375 46.875 C50.31103521 51.69433601 51.56607993 55.38764048 50.6875 61.375 C48.91633845 66.65976311 46.4603661 70.34830442 41.6875 73.375 C37.6892747 75.31350715 34.49877353 75.61071939 30.07421875 75.5703125 C28.2034668 75.56064453 28.2034668 75.56064453 26.29492188 75.55078125 C25.00134766 75.53402344 23.70777344 75.51726562 22.375 75.5 C20.40563477 75.48646484 20.40563477 75.48646484 18.39648438 75.47265625 C15.15997087 75.44911797 11.92382851 75.4162352 8.6875 75.375 C8.66171875 74.09625 8.6359375 72.8175 8.609375 71.5 C8.55305525 69.79163435 8.49570882 68.08330233 8.4375 66.375 C8.42332031 65.53582031 8.40914062 64.69664063 8.39453125 63.83203125 C8.10376117 56.33016311 6.22988585 50.91738585 0.875 45.5625 C-5.49613855 41.19015002 -10.67196151 39.91477622 -18.25 39.6875 C-19.02923828 39.65333984 -19.80847656 39.61917969 -20.61132812 39.58398438 C-22.51124393 39.5023929 -24.41184403 39.43700115 -26.3125 39.375 C-26.43717036 35.391686 -26.52733313 31.40914494 -26.5871582 27.42431641 C-26.62432827 25.41137747 -26.6878997 23.39898163 -26.75195312 21.38671875 C-26.83713823 14.60598431 -26.81587006 9.4530489 -22.76147461 3.84179688 C-16.52476858 -2.47162012 -7.96543264 -3.51720402 0 0 Z " fill="#65DBFF" transform="translate(85.3125,30.625)"/>
<path d="M0 0 C11 0 11 0 14.77734375 3.32421875 C15.86596748 4.7524615 16.91918609 6.20830571 17.9375 7.6875 C18.47439453 8.40873047 19.01128906 9.12996094 19.56445312 9.87304688 C20.60106066 11.26921569 21.62317215 12.67629857 22.62841797 14.09521484 C23.81481833 15.74282887 25.08977924 17.32598754 26.37890625 18.89453125 C28 21 28 21 28 23 C31.75947154 19.34287342 35.19870139 15.52162885 38.5625 11.5 C39.03107422 10.94441406 39.49964844 10.38882813 39.98242188 9.81640625 C40.67368164 8.99462891 40.67368164 8.99462891 41.37890625 8.15625 C41.83539551 7.62644531 42.29188477 7.09664063 42.76220703 6.55078125 C44.18413916 4.8520053 44.18413916 4.8520053 45.65234375 2.09375 C48 0 48 0 59 0 C59 18.15 59 36.3 59 55 C55.04 55 51.08 55 47 55 C46.67 43.78 46.34 32.56 46 21 C37.61172343 30.69970065 37.61172343 30.69970065 30 41 C25.82962637 37.01532019 22.25328067 32.71457281 18.6875 28.1875 C16.810625 25.815625 14.93375 23.44375 13 21 C12.67 32.22 12.34 43.44 12 55 C8.04 55 4.08 55 0 55 C0 36.85 0 18.7 0 0 Z " fill="#384AE8" transform="translate(150,57)"/>
<path d="M0 0 C3.63 0 7.26 0 11 0 C11 18.15 11 36.3 11 55 C7.37 55 3.74 55 0 55 C-0.33 53.68 -0.66 52.36 -1 51 C-1.763125 51.639375 -2.52625 52.27875 -3.3125 52.9375 C-7.51402063 56.16192281 -10.79200398 56.5122619 -16 56 C-21.26237864 53.86309482 -25.36193176 50.46785751 -28.15625 45.51171875 C-30.27230124 39.2125477 -30.18345509 31.91447896 -27.69140625 25.77734375 C-26.11248583 23.18470537 -24.78476366 21.56835274 -22.4375 19.6875 C-21.83808594 19.19636719 -21.23867188 18.70523438 -20.62109375 18.19921875 C-17.76058648 16.08313265 -15.76749497 15.78876122 -12.25 15.6875 C-11.40953125 15.65011719 -10.5690625 15.61273438 -9.703125 15.57421875 C-7 16 -7 16 -1 20 C-0.67 13.4 -0.34 6.8 0 0 Z " fill="#3649E8" transform="translate(290,57)"/>
<path d="M0 0 C4.98511982 2.91494902 8.73995987 6.46597337 10.59765625 12.0390625 C10.59765625 15.6690625 10.59765625 19.2990625 10.59765625 23.0390625 C1.68765625 23.0390625 -7.22234375 23.0390625 -16.40234375 23.0390625 C-12.26792037 28.01166876 -12.26792037 28.01166876 -9.15625 28.6328125 C-4.20681447 28.42107194 -0.73156937 27.70320134 3.59765625 25.0390625 C6.07265625 28.0090625 6.07265625 28.0090625 8.59765625 31.0390625 C7.60091282 33.63168475 6.93242373 34.83402533 4.53125 36.3046875 C-1.96850862 38.86797259 -7.68025034 40.50334468 -14.53125 38.37890625 C-20.63196538 35.70477863 -24.54228544 31.3364386 -27.77734375 25.6015625 C-29.48620571 18.59522847 -28.51922919 13.63261492 -25.06640625 7.3828125 C-19.16446717 -0.92977776 -9.58816696 -3.83526679 0 0 Z " fill="#384BE8" transform="translate(245.40234375,73.9609375)"/>
<path d="M0 0 C3.3 0 6.6 0 10 0 C10.33 10.23 10.66 20.46 11 31 C13.97 27.37 16.94 23.74 20 20 C24 16 24 16 27.015625 15.609375 C28.08296875 15.65578125 29.1503125 15.7021875 30.25 15.75 C31.32765625 15.78609375 32.4053125 15.8221875 33.515625 15.859375 C34.33546875 15.90578125 35.1553125 15.9521875 36 16 C34.3383196 20.12417063 31.37661982 23.06554039 28.375 26.25 C27.859375 26.80429688 27.34375 27.35859375 26.8125 27.9296875 C25.54574965 29.2902712 24.27342185 30.64565837 23 32 C23.42410156 32.66644531 23.84820312 33.33289063 24.28515625 34.01953125 C25.51621482 35.95405187 26.74664104 37.88897498 27.9765625 39.82421875 C29.32080361 41.93400257 30.66973556 44.04080527 32.0234375 46.14453125 C32.65507812 47.12808594 33.28671875 48.11164063 33.9375 49.125 C34.52402344 50.03507812 35.11054688 50.94515625 35.71484375 51.8828125 C37 54 37 54 37 55 C32.8480208 55.61359299 29.12788716 55.85653659 25 55 C21.85639845 52.0856194 20.03295039 48.73745755 18 45 C17.02335525 43.64946573 16.03105324 42.30946821 15 41 C10.55208051 45.44791949 10.36036673 48.96385731 10 55 C6.7 55 3.4 55 0 55 C0 36.85 0 18.7 0 0 Z " fill="#3447E8" transform="translate(439,57)"/>
<path d="M0 0 C19.22112837 -1.00342317 19.22112837 -1.00342317 27 5 C31.28584635 8.94441624 34.72681649 13.16426291 35.15527344 19.18017578 C35.19665867 21.72738634 35.17438318 24.26546775 35.125 26.8125 C35.11597656 27.69615234 35.10695312 28.57980469 35.09765625 29.49023438 C35.07419637 31.66027359 35.03832865 33.83017247 35 36 C14.03681647 37.02760704 14.03681647 37.02760704 7 31 C3.01685864 26.2366557 -0.13740664 21.71024941 -0.09765625 15.4296875 C-0.09443359 14.53378906 -0.09121094 13.63789062 -0.08789062 12.71484375 C-0.07951172 11.77769531 -0.07113281 10.84054688 -0.0625 9.875 C-0.05798828 8.93011719 -0.05347656 7.98523438 -0.04882812 7.01171875 C-0.03702357 4.67441613 -0.02055759 2.33723939 0 0 Z " fill="#261DFF" transform="translate(59,70)"/>
<path d="M0 0 C3.96 0 7.92 0 12 0 C12 14.52 12 29.04 12 44 C20.58 44 29.16 44 38 44 C38 47.63 38 51.26 38 55 C25.46 55 12.92 55 0 55 C0 36.85 0 18.7 0 0 Z " fill="#3548E8" transform="translate(331,57)"/>
<path d="M0 0 C3.63 0 7.26 0 11 0 C11.33 1.32 11.66 2.64 12 4 C12.804375 3.34 13.60875 2.68 14.4375 2 C18.46647626 -0.66693464 22.30946552 -0.8321916 27 0 C31.50550531 2.25275266 33.82017172 4.49926568 36 9 C36.34057617 12.3215332 36.34057617 12.3215332 36.29296875 16.05078125 C36.28872391 16.70958786 36.28447906 17.36839447 36.28010559 18.04716492 C36.26341196 20.13603885 36.22578058 22.22392139 36.1875 24.3125 C36.17244097 25.73501203 36.15875469 27.1575393 36.14648438 28.58007812 C36.11354003 32.05370351 36.06182408 35.52675487 36 39 C32.7 39 29.4 39 26 39 C25.98541748 38.25838623 25.97083496 37.51677246 25.95581055 36.75268555 C25.88140543 33.39709369 25.78471994 30.04250506 25.6875 26.6875 C25.66494141 25.52025391 25.64238281 24.35300781 25.61914062 23.15039062 C25.58369141 22.03212891 25.54824219 20.91386719 25.51171875 19.76171875 C25.48553467 18.73006592 25.45935059 17.69841309 25.43237305 16.63549805 C25.20194029 13.98407023 25.20194029 13.98407023 23.65161133 12.16333008 C21.05802531 10.33651007 19.08178052 10.62263912 16 11 C13.75398296 12.08200794 13.75398296 12.08200794 12 14 C11.35750537 16.69732889 11.35750537 16.69732889 11.390625 19.76171875 C11.35839844 20.87998047 11.32617188 21.99824219 11.29296875 23.15039062 C11.27169922 24.90125977 11.27169922 24.90125977 11.25 26.6875 C11.22035156 27.86634766 11.19070313 29.04519531 11.16015625 30.25976562 C11.08939412 33.17280683 11.04244124 36.08640856 11 39 C7.37 39 3.74 39 0 39 C0 26.13 0 13.26 0 0 Z " fill="#374AE8" transform="translate(393,73)"/>
<path d="M0 0 C3.3 0 6.6 0 10 0 C10 12.87 10 25.74 10 39 C6.7 39 3.4 39 0 39 C0 26.13 0 13.26 0 0 Z " fill="#3346E8" transform="translate(374,73)"/>
<path d="M0 0 C3.3 0 6.6 0 10 0 C10 12.54 10 25.08 10 38 C6.7 38 3.4 38 0 38 C0 25.46 0 12.92 0 0 Z " fill="#3144E8" transform="translate(310,74)"/>
<path d="M0 0 C3.64184981 2.55704348 4.77792202 4.22272709 6 8.5 C6 12.46141474 5.46036418 13.94575481 3 17 C0.68162542 19.31837458 -0.62761069 19.93523664 -3.875 20.5 C-7.95241833 19.84761307 -10.56829977 18.28437434 -13 15 C-14.45555675 10.98913251 -14.44929785 8.03338506 -12.75 4.125 C-9.18035141 -0.20957328 -5.37022165 -1.00495376 0 0 Z " fill="#FBFCFE" transform="translate(285,83)"/>
<path d="M0 0 C0 18.15 0 36.3 0 55 C-3.96 55 -7.92 55 -12 55 C-12 43.45 -12 31.9 -12 20 C-11.67 20 -11.34 20 -11 20 C-11 31.22 -11 42.44 -11 54 C-8.03 54 -5.06 54 -2 54 C-2 36.51 -2 19.02 -2 1 C-8.92276041 1.71370639 -8.92276041 1.71370639 -13 6 C-13.66 5.67 -14.32 5.34 -15 5 C-11.26963276 -2.10546142 -9.26712388 0 0 0 Z " fill="#273CE7" transform="translate(209,57)"/>
<path d="M0 0 C1.9375 1.0625 1.9375 1.0625 3 3 C2.8125 6.625 2.8125 6.625 2 10 C-0.79870027 11.39935013 -2.90498792 11.25265405 -6 11 C-7.875 9.8125 -7.875 9.8125 -9 8 C-9.42822025 5.14519831 -9.40659584 3.65507108 -7.875 1.1875 C-5.12844028 -0.55198782 -3.18153026 -0.39769128 0 0 Z " fill="#3245E8" transform="translate(318,57)"/>
<path d="M0 0 C1.875 1.1875 1.875 1.1875 3 3 C3.42822025 5.85480169 3.40659584 7.34492892 1.875 9.8125 C-0.87155972 11.55198782 -2.81846974 11.39769128 -6 11 C-7.875 9.8125 -7.875 9.8125 -9 8 C-9.42822025 5.14519831 -9.40659584 3.65507108 -7.875 1.1875 C-5.12844028 -0.55198782 -3.18153026 -0.39769128 0 0 Z " fill="#3346E8" transform="translate(382,57)"/>
<path d="M0 0 C2.875 2.375 2.875 2.375 5 5 C5 5.66 5 6.32 5 7 C-0.61 7 -6.22 7 -12 7 C-8.53014862 1.21691436 -6.73812932 -0.9433381 0 0 Z " fill="#F3F5FD" transform="translate(240,82)"/>
<path d="M0 0 C2.8203125 -0.29296875 2.8203125 -0.29296875 6.125 -0.1875 C7.76855469 -0.14689453 7.76855469 -0.14689453 9.4453125 -0.10546875 C10.28835938 -0.07066406 11.13140625 -0.03585938 12 0 C10.63016497 3.16115776 10.0109362 3.9927092 7 6 C7.33 5.01 7.66 4.02 8 3 C4.7 3 1.4 3 -2 3 C-1.34 2.01 -0.68 1.02 0 0 Z " fill="#4859EB" transform="translate(463,73)"/>
<path d="M0 0 C-1.36370299 2.99220268 -2.94908083 5.29026529 -5.125 7.75 C-5.93324219 8.67039062 -5.93324219 8.67039062 -6.7578125 9.609375 C-7.16773438 10.06828125 -7.57765625 10.5271875 -8 11 C-8.33 10.01 -8.66 9.02 -9 8 C-7.63671875 5.95703125 -7.63671875 5.95703125 -5.6875 3.8125 C-5.05199219 3.09707031 -4.41648437 2.38164063 -3.76171875 1.64453125 C-2 0 -2 0 0 0 Z " fill="#2C40E7" transform="translate(271,75)"/>
<path d="M0 0 C1.75126074 0.08022791 3.50215533 0.17689136 5.25 0.3125 C5.25 0.6425 5.25 0.9725 5.25 1.3125 C4.64671875 1.33828125 4.0434375 1.3640625 3.421875 1.390625 C-1.85535339 1.71581983 -1.85535339 1.71581983 -6.3125 4.375 C-6.786875 5.014375 -7.26125 5.65375 -7.75 6.3125 C-8.41 5.9825 -9.07 5.6525 -9.75 5.3125 C-7.23964755 0.53087629 -5.1279444 -0.03299836 0 0 Z " fill="#1D33E6" transform="translate(203.75,56.6875)"/>
<path d="M0 0 C0.94875 0.04125 1.8975 0.0825 2.875 0.125 C2.318125 0.351875 1.76125 0.57875 1.1875 0.8125 C-1.75746684 2.48396766 -3.80656544 4.67776352 -6.125 7.125 C-5.03177966 0.20127119 -5.03177966 0.20127119 0 0 Z " fill="#2035E6" transform="translate(379.125,56.875)"/>
</svg>
